<svg id="Layer_1" enable-background="new 0 0 511 511" height="512" viewBox="0 0 511 511" width="512" xmlns="http://www.w3.org/2000/svg"><g><path d="m135.5 319.75h-128v-48c0-8.837 7.163-16 16-16h96c8.837 0 16 7.163 16 16z" fill="#a7feeb"/><path d="m135.5 271.75v48h-16v-64c8.84 0 16 7.16 16 16z" fill="#89edd7"/><circle cx="71.5" cy="223.75" fill="#fbf2e2" r="32"/><path d="m71.5 191.75c-2.763 0-5.443.35-8 1.008 13.802 3.552 24 16.081 24 30.992s-10.198 27.439-24 30.992c2.557.658 5.237 1.008 8 1.008 17.673 0 32-14.327 32-32s-14.327-32-32-32z" fill="#f7e0ba"/><path d="m375.5 319.75h-128v-48c0-8.837 7.163-16 16-16h96c8.837 0 16 7.163 16 16z" fill="#f94d66"/><path d="m375.5 271.75v48h-16v-64c8.84 0 16 7.16 16 16z" fill="#de3052"/><circle cx="311.5" cy="223.75" fill="#fbf2e2" r="32"/><path d="m311.5 191.75c-2.763 0-5.443.35-8 1.008 13.802 3.552 24 16.081 24 30.992s-10.198 27.439-24 30.992c2.557.658 5.237 1.008 8 1.008 17.673 0 32-14.327 32-32s-14.327-32-32-32z" fill="#f7e0ba"/><path d="m503.5 431.75h-128v-48c0-8.837 7.163-16 16-16h96c8.837 0 16 7.163 16 16z" fill="#e8ab4c"/><path d="m503.5 383.75v48h-16v-64c8.84 0 16 7.16 16 16z" fill="#df941e"/><circle cx="439.5" cy="335.75" fill="#fbf2e2" r="32"/><path d="m439.5 303.75c-2.763 0-5.443.35-8 1.008 13.802 3.552 24 16.081 24 30.992s-10.198 27.44-24 30.992c2.557.658 5.237 1.008 8 1.008 17.673 0 32-14.327 32-32s-14.327-32-32-32z" fill="#f7e0ba"/><path d="m503.5 207.75h-128v-48c0-8.837 7.163-16 16-16h96c8.837 0 16 7.163 16 16z" fill="#adb9c8"/><path d="m503.5 159.75v48h-16v-64c8.84 0 16 7.16 16 16z" fill="#92a2b5"/><circle cx="439.5" cy="111.75" fill="#fbf2e2" r="32"/><path d="m439.5 79.75c-2.763 0-5.443.35-8 1.008 13.802 3.552 24 16.081 24 30.992s-10.198 27.439-24 30.992c2.557.658 5.237 1.008 8 1.008 17.673 0 32-14.327 32-32s-14.327-32-32-32z" fill="#f7e0ba"/><circle cx="295.5" cy="383.75" fill="#f94d66" r="16"/><circle cx="327.5" cy="111.75" fill="#f94d66" r="16"/><g><path d="m119.5 248.25h-17.051c5.346-6.739 8.551-15.25 8.551-24.5 0-21.78-17.72-39.5-39.5-39.5s-39.5 17.72-39.5 39.5c0 9.25 3.205 17.761 8.551 24.5h-17.051c-12.958 0-23.5 10.542-23.5 23.5v55.5h47v-47.5h-15v32.5h-17v-40.5c0-4.687 3.813-8.5 8.5-8.5h96c4.687 0 8.5 3.813 8.5 8.5v40.5h-17v-32.5h-15v32.5h-32.5v15h79.5v-55.5c0-12.958-10.542-23.5-23.5-23.5zm-48 0c-13.509 0-24.5-10.991-24.5-24.5s10.991-24.5 24.5-24.5 24.5 10.991 24.5 24.5-10.991 24.5-24.5 24.5z"/><path d="m295.5 280.25h16v15h-16z"/><path d="m383 271.75c0-12.958-10.542-23.5-23.5-23.5h-17.051c5.346-6.739 8.551-15.25 8.551-24.5 0-21.78-17.72-39.5-39.5-39.5s-39.5 17.72-39.5 39.5c0 9.25 3.205 17.761 8.551 24.5h-17.051c-12.958 0-23.5 10.542-23.5 23.5v55.5h143zm-71.5-72.5c13.509 0 24.5 10.991 24.5 24.5s-10.991 24.5-24.5 24.5-24.5-10.991-24.5-24.5 10.991-24.5 24.5-24.5zm56.5 113h-17v-32.5h-15v32.5h-49v-32.5h-15v32.5h-17v-40.5c0-4.687 3.813-8.5 8.5-8.5h96c4.687 0 8.5 3.813 8.5 8.5z"/><path d="m487.5 360.25h-17.051c5.346-6.739 8.551-15.25 8.551-24.5 0-21.78-17.72-39.5-39.5-39.5s-39.5 17.72-39.5 39.5c0 9.25 3.205 17.761 8.551 24.5h-17.051c-12.958 0-23.5 10.542-23.5 23.5v55.5h143v-55.5c0-12.958-10.542-23.5-23.5-23.5zm-48-49c13.509 0 24.5 10.991 24.5 24.5s-10.991 24.5-24.5 24.5-24.5-10.991-24.5-24.5 10.991-24.5 24.5-24.5zm56.5 113h-17v-32.5h-15v32.5h-49v-32.5h-15v32.5h-17v-40.5c0-4.687 3.813-8.5 8.5-8.5h96c4.687 0 8.5 3.813 8.5 8.5z"/><path d="m487.5 136.25h-17.051c5.346-6.739 8.551-15.25 8.551-24.5 0-21.78-17.72-39.5-39.5-39.5s-39.5 17.72-39.5 39.5c0 9.25 3.205 17.761 8.551 24.5h-17.051c-12.958 0-23.5 10.542-23.5 23.5v55.5h79.5v-15h-32.5v-32.5h-15v32.5h-17v-40.5c0-4.687 3.813-8.5 8.5-8.5h96c4.687 0 8.5 3.813 8.5 8.5v40.5h-17v-32.5h-15v47.5h47v-55.5c0-12.958-10.542-23.5-23.5-23.5zm-48 0c-13.509 0-24.5-10.991-24.5-24.5s10.991-24.5 24.5-24.5 24.5 10.991 24.5 24.5-10.991 24.5-24.5 24.5z"/><path d="m127.5 216.25h16v15h-16z"/><path d="m159.5 232.25h16v15h-16z"/><path d="m159.5 200.25h16v15h-16z"/><path d="m191.5 184.25h16v15h-16z"/><path d="m191.5 216.25h16v15h-16z"/><path d="m191.5 248.25h16v15h-16z"/><path d="m316.546 373.311 12.542-12.542-10.606-10.606-12.542 12.542c-.945-.471-1.927-.878-2.939-1.22v-17.735h-15v17.734c-1.012.342-1.994.749-2.939 1.22l-12.542-12.542-10.606 10.606 12.542 12.542c-.471.945-.878 1.927-1.22 2.939h-17.736v15h17.734c.342 1.012.749 1.994 1.22 2.939l-12.542 12.542 10.606 10.606 12.542-12.542c.945.471 1.927.878 2.939 1.22v17.734h15v-17.734c1.012-.342 1.994-.749 2.939-1.22l12.542 12.542 10.606-10.606-12.542-12.542c.471-.945.878-1.927 1.22-2.939h17.736v-15h-17.734c-.342-1.011-.749-1.993-1.22-2.938zm-21.046 18.939c-4.687 0-8.5-3.813-8.5-8.5s3.813-8.5 8.5-8.5 8.5 3.813 8.5 8.5-3.813 8.5-8.5 8.5z"/><path d="m306.454 122.189-12.542 12.542 10.606 10.606 12.542-12.542c.945.471 1.927.878 2.939 1.22v17.734h15v-17.734c1.012-.342 1.994-.749 2.939-1.22l12.542 12.542 10.606-10.606-12.542-12.542c.471-.945.878-1.927 1.22-2.939h17.736v-15h-17.734c-.342-1.012-.749-1.994-1.22-2.939l12.542-12.542-10.606-10.606-12.542 12.542c-.945-.471-1.927-.878-2.939-1.22v-17.735h-15v17.734c-1.012.342-1.994.749-2.939 1.22l-12.542-12.542-10.606 10.606 12.542 12.542c-.471.945-.878 1.927-1.22 2.939h-17.736v15h17.734c.342 1.013.749 1.995 1.22 2.94zm21.046-18.939c4.687 0 8.5 3.813 8.5 8.5s-3.813 8.5-8.5 8.5-8.5-3.813-8.5-8.5 3.813-8.5 8.5-8.5z"/><path d="m55.5 280.25h16v15h-16z"/></g><g><path d="m423.5 392.25h16v15h-16z" fill="#fff"/></g><g><path d="m423.5 168.25h16v15h-16z" fill="#fff"/></g></g></svg>