<svg id="Layer_1" enable-background="new 0 0 511.5 511.5" height="512" viewBox="0 0 511.5 511.5" width="512" xmlns="http://www.w3.org/2000/svg"><g><path d="m143.75 175.5c-35.346 0-64 28.654-64 64v120l56 56 24-24v-40l-24-24v-32h32v-56h136l32-32v-32z" fill="#e8ab4c"/><path d="m311.75 175.5v32l-32 32h24l32-32v-32z" fill="#df941e"/><path d="m303.75 287.5v-48h-136v56h-32v32l24 24v40l-24 24v96h79.667v-48h48.333c25.673 0 40-14.327 40-32v-32h-64v-16l16-16h48v-32h32v-16z" fill="#fbf2e2"/><g><g><path d="m191.75 200h16v15h-16z" fill="#fff"/></g><g><path d="m255.75 200h16v15h-16z" fill="#fff"/></g></g><g fill="#f7e0ba"><path d="m287.75 335.5h16v32h-16z"/><path d="m279.75 431.5c0 17.673-14.327 32-40 32h24c25.673 0 40-14.327 40-32v-32h-24z"/><path d="m303.75 287.5v-48h-24v48l32 32v16h24v-16z"/><path d="m191.75 463.5h24v48h-24z"/></g><path d="m431.75 15.5v184l-16 16v64c0 8.837-7.163 16-16 16-8.837 0-16-7.163-16-16v-64l-16-16v-184c0-4.418 3.582-8 8-8h48c4.418 0 8 3.582 8 8z" fill="#fff"/><path d="m415.75 263.5v16c0 8.84-7.16 16-16 16-4.42 0-8.42-1.79-11.32-4.68-2.89-2.9-4.68-6.9-4.68-11.32v-16z" fill="#fff"/><path d="m415.75 263.5v16c0 8.84-7.16 16-16 16v-32z" fill="#e4e8ed"/><path d="m431.75 55.5v-40c0-4.418-3.582-8-8-8h-8v48z" fill="#e4e8ed"/><path d="m431.75 199.5v-144h-64v144l16 16v48h32v-48z" fill="#f94d66"/><path d="m415.75 55.5v136l-16 16v56h16v-48l16-16v-144z" fill="#de3052"/><g><path d="m223.75 200h16v15h-16z"/><path d="m72.25 239.5v40h15v-40c0-31.154 25.346-56.5 56.5-56.5h184.5v21.394l-27.607 27.606h-140.393v56h-32v42.606l24 24v33.787l-16.5 16.5-48.5-48.5v-60.893h-15v67.106l56 56v92.894h15v-92.894l24-24v-46.213l-24-24v-21.393h32v-56h121v43.606l32 32v5.394h-32v32h-43.606l-20.394 20.394v26.606h64v24.5c0 14.883-12.757 24.5-32.5 24.5h-80v15h24.5v40.5h15v-40.5h40.5c27.968 0 47.5-16.243 47.5-39.5v-39.5h-64v-5.394l11.606-11.606h52.394v-32h32v-26.606l-32-32v-41.787l32-32.001v-42.606h-199.5c-39.425 0-71.5 32.075-71.5 71.5z"/><path d="m242.446 314.197 10.608 10.606 18.196-18.197v-26.606h-55.5v15h40.5v5.394z"/><path d="m423.75 0h-48c-8.547 0-15.5 6.953-15.5 15.5v88h15v-40.5h49v17h-24.5v15h24.5v17h-24.5v15h24.5v17h-24.5v15h24.5v17h-24.5v15h24.5v5.394l-16 16v43.606h-17v-43.606l-16-16v-76.894h-15v83.107l16 16v60.893c0 12.958 10.542 23.5 23.5 23.5s23.5-10.542 23.5-23.5v-60.894l16-16v-187.106c0-8.547-6.953-15.5-15.5-15.5zm-15.5 279.5c0 4.687-3.814 8.5-8.5 8.5s-8.5-3.813-8.5-8.5v-8.5h17zm16-231.5h-49v-32.5c0-.276.225-.5.5-.5h48c.275 0 .5.224.5.5z"/></g></g></svg>