<svg id="Layer_1" enable-background="new 0 0 510.5 510.5" height="512" viewBox="0 0 510.5 510.5" width="512" xmlns="http://www.w3.org/2000/svg"><g><path d="m255 415.25h64c8.837 0 16-7.163 16-16 0-8.837-7.163-16-16-16h-64c-8.837 0-16 7.163-16 16 0 8.837 7.163 16 16 16z" fill="#f94d66"/><path d="m239 399.25c0 4.42 1.79 8.42 4.68 11.32 2.9 2.89 6.9 4.68 11.32 4.68h32v-32h-32c-8.84 0-16 7.16-16 16z" fill="#a7feeb"/><path d="m319 399.25c5.919 0 11.074-3.222 13.842-8 1.365 2.355 2.158 5.082 2.158 8 0 8.837-7.163 16-16 16h-32v-16z" fill="#de3052"/><path d="m241.158 391.25c2.768 4.778 7.923 8 13.842 8h32v16h-32c-8.837 0-16-7.163-16-16 0-2.918.794-5.645 2.158-8z" fill="#89edd7"/><path d="m39.5 159.25h128v32h-128z" fill="#e5ecf5"/><path d="m143.5 159.25h24v32h-24z" fill="#cad8eb"/><path d="m7.5 191.25h192v224h-192z" fill="#e5ecf5"/><path d="m175.5 191.25h24v224h-24z" fill="#cad8eb"/><path d="m7.5 239.25h192v128h-192z" fill="#a7feeb"/><path d="m175.5 239.25h24v128h-24z" fill="#89edd7"/><path d="m7.5 95.25h192v64h-192z" fill="#adb9c8"/><path d="m175.5 95.25h24v64h-24z" fill="#92a2b5"/><path d="m375 351.25h-64c-8.837 0-16-7.163-16-16 0-8.837 7.163-16 16-16h64c8.837 0 16 7.163 16 16 0 8.837-7.163 16-16 16z" fill="#f94d66"/><path d="m311 335.25c-5.919 0-11.074-3.222-13.842-8-1.365 2.355-2.158 5.082-2.158 8 0 8.837 7.163 16 16 16h32v-16z" fill="#de3052"/><path d="m391 335.25c0 4.42-1.79 8.42-4.68 11.32-2.9 2.89-6.9 4.68-11.32 4.68h-32v-32h32c8.84 0 16 7.16 16 16z" fill="#a7feeb"/><path d="m388.842 327.25c-2.768 4.778-7.923 8-13.842 8h-32v16h32c8.837 0 16-7.163 16-16 0-2.918-.793-5.645-2.158-8z" fill="#89edd7"/><circle cx="455" cy="367.25" fill="#f94d66" r="32"/><path d="m455 335.25c-2.763 0-5.443.35-8 1.008 13.802 3.552 24 16.081 24 30.992s-10.198 27.44-24 30.992c2.557.658 5.237 1.008 8 1.008 17.673 0 32-14.327 32-32s-14.327-32-32-32z" fill="#de3052"/><circle cx="471" cy="271.25" fill="#a7feeb" r="32"/><path d="m493.627 248.623c-1.953-1.953-4.096-3.601-6.37-4.944 7.247 12.271 5.599 28.342-4.944 38.885s-26.614 12.191-38.885 4.944c1.343 2.273 2.99 4.417 4.944 6.37 12.497 12.497 32.758 12.497 45.255 0s12.497-32.759 0-45.255z" fill="#89edd7"/><g><path d="m0 166.75h32v17h-32v239h207v-111.5h-15v48.5h-177v-113h177v48.5h15v-111.5h-32v-17h32v-79h-207zm192 208v33h-177v-33zm0-176v33h-177v-33zm-145-15v-17h113v17zm-32-81h17v24.5h15v-24.5h17v24.5h15v-24.5h17v24.5h15v-24.5h17v24.5h15v-24.5h17v24.5h15v-24.5h17v49h-177z"/><path d="m319 375.75h-64c-12.958 0-23.5 10.542-23.5 23.5s10.542 23.5 23.5 23.5h39.5v-32h24.5c4.686 0 8.5 3.813 8.5 8.5s-3.814 8.5-8.5 8.5h-8v15h8c12.958 0 23.5-10.542 23.5-23.5s-10.542-23.5-23.5-23.5zm-39.5 32h-24.5c-4.686 0-8.5-3.813-8.5-8.5s3.814-8.5 8.5-8.5h24.5z"/><path d="m375 311.75h-64c-12.958 0-23.5 10.542-23.5 23.5s10.542 23.5 23.5 23.5h64c12.958 0 23.5-10.542 23.5-23.5s-10.542-23.5-23.5-23.5zm-39.5 32h-24.5c-4.686 0-8.5-3.813-8.5-8.5s3.814-8.5 8.5-8.5h24.5zm39.5 0h-24.5v-17h24.5c4.686 0 8.5 3.813 8.5 8.5s-3.814 8.5-8.5 8.5z"/><path d="m455 327.75c-21.78 0-39.5 17.72-39.5 39.5s17.72 39.5 39.5 39.5 39.5-17.72 39.5-39.5-17.72-39.5-39.5-39.5zm0 64c-10.894 0-20.146-7.149-23.321-17h46.643c-3.176 9.851-12.428 17-23.322 17zm-23.321-32c3.176-9.851 12.427-17 23.321-17s20.146 7.149 23.321 17z"/><path d="m471 231.75c-21.78 0-39.5 17.72-39.5 39.5s17.72 39.5 39.5 39.5 39.5-17.72 39.5-39.5-17.72-39.5-39.5-39.5zm0 64c-13.51 0-24.5-10.991-24.5-24.5 0-4.027.983-7.827 2.712-11.182l32.97 32.97c-3.356 1.729-7.155 2.712-11.182 2.712zm21.788-13.318-32.97-32.97c3.355-1.729 7.155-2.711 11.181-2.711 13.51 0 24.5 10.991 24.5 24.5.001 4.026-.982 7.826-2.711 11.181z"/></g><g><g><path d="m63.5 295.75h16v15h-16z" fill="#fff"/></g><g><path d="m127.5 295.75h16v15h-16z" fill="#fff"/></g><g><path d="m95.5 295.75h16v15h-16z"/></g></g></g></svg>