<svg id="Layer_1" enable-background="new 0 0 512 512" height="512" viewBox="0 0 512 512" width="512" xmlns="http://www.w3.org/2000/svg"><g><g><circle cx="64" cy="244.25" fill="#f94d66" r="32"/><path d="m66.212 212.335c9.282 3.968 15.788 13.181 15.788 23.915 0 14.359-11.641 26-26 26-10.734 0-19.946-6.506-23.915-15.788 1.137 16.64 14.986 29.788 31.915 29.788 17.673 0 32-14.327 32-32 0-16.929-13.148-30.778-29.788-31.915z" fill="#de3052"/></g><g><circle cx="384" cy="196.25" fill="#f94d66" r="32"/><path d="m386.212 164.335c9.282 3.968 15.788 13.181 15.788 23.915 0 14.359-11.641 26-26 26-10.734 0-19.947-6.506-23.915-15.788 1.137 16.64 14.987 29.788 31.915 29.788 17.673 0 32-14.327 32-32 0-16.929-13.148-30.778-29.788-31.915z" fill="#de3052"/></g><path d="m269.313 184.219 130.104 195.156c7.089 10.633-.534 24.875-13.313 24.875h-260.208c-12.779 0-20.401-14.242-13.313-24.875l130.104-195.156c6.333-9.5 20.293-9.5 26.626 0z" fill="#f94d66"/><path d="m399.417 379.375-130.104-195.156c-5.926-8.889-18.529-9.457-25.313-1.71.466.532.906 1.1 1.313 1.71l130.104 195.156c7.089 10.633-.534 24.875-13.313 24.875h24c12.779 0 20.401-14.242 13.313-24.875z" fill="#de3052"/><path d="m256 228.25 96 144h-192z" fill="#fff"/><circle cx="176" cy="140.25" fill="#f94d66" r="16"/><g><circle cx="472" cy="300.25" fill="#f94d66" r="16"/><g><path d="m114.559 284.202-17.843-17.842c2.939-4.335 5.033-9.285 6.061-14.61h25.223v-15h-25.223c-1.028-5.325-3.122-10.275-6.061-14.61l17.842-17.842-10.607-10.606-17.842 17.842c-4.335-2.939-9.284-5.032-14.609-6.06v-25.224h-15v25.223c-5.325 1.028-10.274 3.121-14.609 6.06l-17.842-17.842-10.607 10.606 17.842 17.842c-2.939 4.335-5.033 9.285-6.061 14.61h-25.223v15h25.223c1.028 5.325 3.122 10.275 6.061 14.61l-17.842 17.842 10.607 10.606 17.842-17.841c4.335 2.939 9.284 5.032 14.609 6.06v25.223h15v-25.223c5.325-1.028 10.274-3.121 14.609-6.06l17.842 17.841zm-50.559-15.452c-13.51 0-24.5-10.991-24.5-24.5s10.99-24.5 24.5-24.5 24.5 10.991 24.5 24.5-10.99 24.5-24.5 24.5z"/><path d="m56 236.75h16v15h-16z"/><path d="m416.716 218.36c2.939-4.335 5.033-9.285 6.061-14.61h25.223v-15h-25.223c-1.028-5.325-3.122-10.275-6.061-14.61l17.842-17.842-10.607-10.606-17.842 17.842c-4.335-2.939-9.284-5.032-14.609-6.06v-25.224h-15v25.223c-5.325 1.028-10.274 3.121-14.609 6.06l-17.842-17.842-10.607 10.606 17.842 17.842c-2.939 4.335-5.033 9.285-6.061 14.61h-25.223v15h25.223c1.028 5.325 3.122 10.275 6.061 14.61l-17.842 17.842 10.607 10.606 17.842-17.842c4.335 2.939 9.284 5.032 14.609 6.06v25.223h15v-25.223c5.325-1.028 10.274-3.121 14.609-6.06l17.842 17.842 10.607-10.606zm-32.716 2.39c-13.51 0-24.5-10.991-24.5-24.5s10.99-24.5 24.5-24.5 24.5 10.991 24.5 24.5-10.99 24.5-24.5 24.5z"/><path d="m376 188.75h16v15h-16z"/><path d="m275.553 180.059c-4.368-6.553-11.678-10.464-19.553-10.464s-15.185 3.912-19.553 10.464l-66.687 100.031 12.48 8.32 66.688-100.031c1.604-2.405 4.182-3.785 7.072-3.785s5.469 1.379 7.072 3.785l130.104 195.156c1.768 2.653 1.927 5.915.422 8.726-1.504 2.811-4.306 4.489-7.494 4.489h-260.208c-3.188 0-5.99-1.678-7.494-4.489-1.505-2.811-1.347-6.073.422-8.726l52.749-79.125-12.48-8.32-52.749 79.125c-4.817 7.225-5.264 16.468-1.167 24.124 4.098 7.656 12.036 12.412 20.72 12.412h260.207c8.684 0 16.622-4.756 20.72-12.412 4.097-7.655 3.649-16.899-1.167-24.124z"/><path d="m304 379.75h62.014l-110.014-165.021-110.014 165.021h142.014v-15h-113.986l81.986-122.979 81.986 122.979h-33.986z"/><path d="m248.5 276.25h15v48h-15z"/><path d="m248.5 340.25h15v16h-15z"/><path d="m154.954 150.689-12.542 12.542 10.607 10.606 12.542-12.542c.945.471 1.927.878 2.939 1.22v17.734h15v-17.734c1.012-.342 1.994-.749 2.939-1.22l12.542 12.542 10.607-10.606-12.542-12.542c.471-.945.878-1.927 1.22-2.939h17.734v-15h-17.734c-.342-1.012-.749-1.994-1.22-2.939l12.542-12.542-10.607-10.606-12.542 12.542c-.945-.471-1.927-.878-2.939-1.22v-17.735h-15v17.734c-1.012.342-1.994.749-2.939 1.22l-12.542-12.542-10.607 10.606 12.542 12.542c-.471.945-.878 1.927-1.22 2.939h-17.734v15h17.734c.342 1.013.749 1.995 1.22 2.94zm21.046-18.939c4.686 0 8.5 3.813 8.5 8.5s-3.814 8.5-8.5 8.5-8.5-3.813-8.5-8.5 3.814-8.5 8.5-8.5z"/><path d="m512 307.75v-15h-17.734c-.342-1.012-.749-1.994-1.22-2.939l12.542-12.542-10.607-10.606-12.542 12.542c-.945-.471-1.927-.878-2.939-1.22v-17.735h-15v17.734c-1.012.342-1.994.749-2.939 1.22l-12.542-12.542-10.607 10.606 12.542 12.542c-.471.945-.878 1.927-1.22 2.939h-17.734v15h17.734c.342 1.012.749 1.994 1.22 2.939l-12.542 12.542 10.607 10.606 12.542-12.542c.945.471 1.927.878 2.939 1.22v17.734h15v-17.734c1.012-.342 1.994-.749 2.939-1.22l12.542 12.542 10.607-10.606-12.542-12.542c.471-.945.878-1.927 1.22-2.939h17.734zm-40 1c-4.686 0-8.5-3.813-8.5-8.5s3.814-8.5 8.5-8.5 8.5 3.813 8.5 8.5-3.814 8.5-8.5 8.5z"/></g></g></g></svg>