<svg id="Layer_1" enable-background="new 0 0 511 511" height="512" viewBox="0 0 511 511" width="512" xmlns="http://www.w3.org/2000/svg"><g><path d="m55.5 115.25c-26.51 0-48 21.49-48 48v112l32 32 16-16v-24l-16-16v-32h32v-56h104l24-24v-24z" fill="#e8ab4c"/><path d="m175.5 115.25v24l-24 24h24l24-24v-24z" fill="#df941e"/><path d="m455.5 115.25c26.51 0 48 21.49 48 48v112l-32 32-16-16v-24l16-16v-32h-32v-56h-104l-24-24v-24z" fill="#e8ab4c"/><path d="m335.5 115.25v24l24 24h-24l-24-24v-24z" fill="#df941e"/><path d="m175.5 203.25v-40h-104v56h-32v32l16 16v24l-16 16v96h80v-48h16c25.673 0 40-14.327 40-32v-16h-40c-4.418 0-8-3.582-8-8v-32c0-4.418 3.582-8 8-8h40v-16h24v-16z" fill="#fbf2e2"/><g fill="#f7e0ba"><path d="m151.5 323.25c0 17.67-14.33 32-40 32h24c25.67 0 40-14.33 40-32v-16h-24z"/><path d="m95.5 355.25h24v48h-24z"/><path d="m175.5 203.25v-40h-24v40l24 24v16h24v-16z"/><path d="m151.5 243.25h24v16h-24z"/></g><path d="m471.5 251.25v-32h-32v-56h-104v40l-24 24v16h24v24h32l16 16v16h-48v24c0 17.673 14.327 32 40 32h16v48h80v-96l-16-16v-24z" fill="#fbf2e2"/><g fill="#f7e0ba"><path d="m335.5 227.25 24-24v-40h-24v40l-24 24v16h24z"/><path d="m335.5 243.25h24v24h-24z"/></g><path d="m359.5 323.25c0 17.67 14.33 32 40 32h-24c-25.67 0-40-14.33-40-32v-24h24z" fill="#f7e0ba"/><path d="m391.5 355.25h24v48h-24z" fill="#f7e0ba"/><g><path d="m103.5 131.75h16v15h-16z" fill="#fff"/></g><g><g><path d="m359.5 131.75h16v15h-16z" fill="#fff"/></g><g><path d="m0 163.25v40h15v-40c0-22.332 18.168-40.5 40.5-40.5h136.5v13.394l-19.606 19.606h-108.394v56h-32v42.606l16 16v17.787l-8.5 8.5-24.5-24.5v-52.893h-15v59.106l32 32v92.894h15v-92.894l16-16v-30.213l-16-16v-21.393h32v-56h89v35.606l24 24v5.394h-24v16h-32.5c-8.547 0-15.5 6.953-15.5 15.5v32c0 8.547 6.953 15.5 15.5 15.5h32.5v8.5c0 14.883-12.757 24.5-32.5 24.5h-48v15h24.5v40.5h15v-40.5h8.5c27.967 0 47.5-16.243 47.5-39.5v-23.5h-47.5c-.276 0-.5-.224-.5-.5v-32c0-.276.224-.5.5-.5h47.5v-16h24v-26.606l-24-24v-33.787l24-24v-34.607h-151.5c-30.603 0-55.5 24.897-55.5 55.5z"/><path d="m511 203.25v-40c0-30.603-24.897-55.5-55.5-55.5h-151.5v34.606l24 24v33.787l-24 24v26.606h24v24h36.394l11.606 11.607v5.394h-48v31.5c0 23.257 19.533 39.5 47.5 39.5h8.5v40.5h15v-40.5h24.5v-15h-48c-19.743 0-32.5-9.617-32.5-24.5v-16.5h48v-26.606l-20.394-20.394h-27.606v-24h-24v-5.394l24-24v-35.606h89v56h32v21.394l-16 16v30.213l16 16v92.894h15v-92.894l32-32v-59.107h-15v52.894l-24.5 24.5-8.5-8.5v-17.787l16-16v-42.607h-32v-56h-108.394l-19.606-19.606v-13.394h136.5c22.332 0 40.5 18.168 40.5 40.5v40z"/><path d="m183.5 275.75h16v15h-16z"/><path d="m215.5 291.75h16v15h-16z"/><path d="m215.5 259.75h16v15h-16z"/><path d="m247.5 307.75h16v15h-16z"/><path d="m247.5 275.75h16v15h-16z"/><path d="m247.5 243.75h16v15h-16z"/><path d="m111.5 226.75h31.5v-18.606l-18.197-18.197-10.606 10.606 11.197 11.197h-13.894z"/><path d="m399.5 195.75h-31.5v18.606l18.197 18.197 10.606-10.606-11.197-11.197h13.894z"/><path d="m135.5 131.75h16v15h-16z"/><path d="m391.5 131.75h16v15h-16z"/></g></g></g></svg>