<svg id="Layer_1" enable-background="new 0 0 511 511" height="512" viewBox="0 0 511 511" width="512" xmlns="http://www.w3.org/2000/svg"><g><path d="m199.5 351.5v-32h-32v80c0 8.837 7.163 16 16 16s16-7.163 16-16v32c0 8.836 7.163 16 16 16 8.836 0 16-7.164 16-16v-80z" fill="#a7feeb"/><path d="m399.5 95.5v-32h-112v32h-80v32h-24v32h16v32h152v32h48v-32h104v-96z" fill="#fbf2e2"/><path d="m503.5 95.5h-112v24h112" fill="#f7e0ba"/><path d="m267.5 131.5h96v24h-96z" fill="#f7e0ba" transform="matrix(0 -1 1 0 172 459)"/><g fill="#a7feeb"><path d="m151.5 287.5h-16v-32h24v-32h80v-32h88v-16c0-17.673-14.327-32-32-32s-32 14.327-32 32c0-35.346-28.654-64-64-64s-64 28.654-64 64h-24c-8.837 0-16 7.163-16 16s7.163 16 16 16h-24c-17.673 0-32 14.327-32 32 0 17.673 14.327 32 32 32h4c-11.046 0-20 8.954-20 20s8.954 20 20 20h60z"/><path d="m151.5 287.5h-16v-32h24v-32h80v-32h88v-16c0-17.673-14.327-32-32-32s-32 14.327-32 32c0-35.346-28.654-64-64-64s-64 28.654-64 64h-24c-8.837 0-16 7.163-16 16s7.163 16 16 16h-24c-17.673 0-32 14.327-32 32 0 17.673 14.327 32 32 32h4c-11.046 0-20 8.954-20 20s8.954 20 20 20h60z"/><path d="m151.5 287.5h-16v-32h24v-32h80v-32h88v-16c0-17.673-14.327-32-32-32s-32 14.327-32 32c0-35.346-28.654-64-64-64s-64 28.654-64 64h-24c-8.837 0-16 7.163-16 16s7.163 16 16 16h-24c-17.673 0-32 14.327-32 32 0 17.673 14.327 32 32 32h4c-11.046 0-20 8.954-20 20s8.954 20 20 20h60z"/></g><path d="m295.5 143.5c-2.762 0-5.443.35-8 1.008 13.802 3.552 24 16.081 24 30.992v16h16v-16c0-17.673-14.327-32-32-32z" fill="#89edd7"/><g fill="#89edd7"><path d="m135.5 287.5h16v24h-16z"/><path d="m119.5 255.5h16v32h-16z"/><path d="m143.5 223.5h16v32h-16z"/><path d="m223.5 191.5h16v32h-16z"/></g><path d="m135.5 175.5c0-35.346 28.654-64 64-64s64 28.654 64 64" fill="#a7feeb"/><path d="m135.5 175.5c0-35.346 28.654-64 64-64s64 28.654 64 64" fill="#a7feeb"/><path d="m199.5 111.5c-2.711 0-5.377.188-8 .516 31.568 3.939 56 30.85 56 63.484h16c0-35.346-28.654-64-64-64z" fill="#89edd7"/><path d="m239.5 223.5h-80v32h-24v32h16v32h40v32h160v-32h120v-96h-120v-32h-112z" fill="#fbf2e2"/><path d="m231.5 367.5v-16h-32v-32h-32v16h24v32z" fill="#89edd7"/><path d="m471.5 295.5h-128v24h128" fill="#f7e0ba"/><circle cx="31.5" cy="175.5" fill="#a7feeb" r="24"/><path d="m31.5 151.5c-2.806 0-5.497.486-8 1.371 9.32 3.295 16 12.18 16 22.629s-6.68 19.334-16 22.629c2.503.885 5.194 1.371 8 1.371 13.255 0 24-10.745 24-24s-10.745-24-24-24z" fill="#89edd7"/><circle cx="71.5" cy="111.5" fill="#a7feeb" r="16"/><path d="m71.5 95.5c-2.918 0-5.645.794-8 2.158 4.778 2.768 8 7.923 8 13.842s-3.222 11.074-8 13.842c2.355 1.364 5.082 2.158 8 2.158 8.837 0 16-7.163 16-16s-7.163-16-16-16z" fill="#89edd7"/><g><g><path d="m511 199v-111h-104v-32h-127v32h-80v16.013c-.167-.001-.332-.013-.5-.013-36.892 0-67.344 28.087-71.105 64h-16.895c-12.958 0-23.5 10.542-23.5 23.5 0 2.997.57 5.862 1.597 8.5h-2.097c-21.78 0-39.5 17.72-39.5 39.5 0 15.383 8.845 28.731 21.711 35.25-3.577 4.642-5.711 10.45-5.711 16.75 0 15.164 12.336 27.5 27.5 27.5h36v-15h-36c-6.893 0-12.5-5.607-12.5-12.5s5.607-12.5 12.5-12.5h20v-15h-20c-1.359 0-2.693.103-4 .294v-.294c-13.509 0-24.5-10.991-24.5-24.5s10.991-24.5 24.5-24.5h48v-15h-24c-4.687 0-8.5-3.813-8.5-8.5s3.813-8.5 8.5-8.5h56v-15h-23.987c3.682-27.619 27.377-49 55.987-49 31.154 0 56.5 25.346 56.5 56.5h15c0-13.509 10.991-24.5 24.5-24.5s24.5 10.991 24.5 24.5v8.5h-88v32h-80v32h-24v47h16v32h16v72.5c0 12.958 10.542 23.5 23.5 23.5 2.997 0 5.862-.57 8.5-1.597v10.097c0 12.958 10.542 23.5 23.5 23.5s23.5-10.542 23.5-23.5v-56h-15v56c0 4.687-3.813 8.5-8.5 8.5s-8.5-3.813-8.5-8.5v-56h-15v24c0 4.687-3.813 8.5-8.5 8.5s-8.5-3.813-8.5-8.5v-72.5h9v32h175v-32h120v-111h-72v-17zm-296-93.288v-2.712h105v17h-75.488c-8.459-6.874-18.513-11.847-29.512-14.288zm80.5 30.288c-11.723 0-22.263 5.138-29.504 13.275-2.005-5.065-4.564-9.851-7.616-14.275h61.62v9.551c-6.739-5.346-15.25-8.551-24.5-8.551zm168.5 176h-120v32h-145v-17h80.5v-15h-120.5v-17h120.5v-15h-136.5v-17h136.5v-15h-112.5v-17h136.5v-15h-56.5v-17h97v32h120zm-105-96v-32h-24v-81h9v24.5c0 8.547 6.953 15.5 15.5 15.5h24v-15h-24c-.276 0-.5-.224-.5-.5v-39.5h-64v-17h97v32h104v81h-104v32z"/><path d="m63 175.5c0-17.369-14.131-31.5-31.5-31.5s-31.5 14.131-31.5 31.5 14.131 31.5 31.5 31.5 31.5-14.131 31.5-31.5zm-31.5 16.5c-9.098 0-16.5-7.402-16.5-16.5s7.402-16.5 16.5-16.5 16.5 7.402 16.5 16.5-7.402 16.5-16.5 16.5z"/><path d="m71.5 135c12.958 0 23.5-10.542 23.5-23.5s-10.542-23.5-23.5-23.5-23.5 10.542-23.5 23.5 10.542 23.5 23.5 23.5zm0-32c4.687 0 8.5 3.813 8.5 8.5s-3.813 8.5-8.5 8.5-8.5-3.813-8.5-8.5 3.813-8.5 8.5-8.5z"/><path d="m183.5 184h16v15h-16z"/></g><g><path d="m199.5 168h16v15h-16z" fill="#fff"/></g></g></g></svg>